<?xml version="1.0" encoding="UTF-8"?>
<svg xmlns="http://www.w3.org/2000/svg" xmlns:xlink="http://www.w3.org/1999/xlink" viewBox="0 0 64 64" width="64px" height="64px">
<g id="surface13463761">
<path style=" stroke:none;fill-rule:nonzero;fill:rgb(100%,100%,100%);fill-opacity:1;" d="M 32 58 C 17.664062 58 6 46.335938 6 32 C 6 17.664062 17.664062 6 32 6 C 46.335938 6 58 17.664062 58 32 C 58 46.335938 46.335938 58 32 58 Z M 32 8 C 18.765625 8 8 18.765625 8 32 C 8 45.234375 18.765625 56 32 56 C 45.234375 56 56 45.234375 56 32 C 56 18.765625 45.234375 8 32 8 Z M 32 8 "/>
<path style=" stroke:none;fill-rule:nonzero;fill:rgb(100%,100%,100%);fill-opacity:1;" d="M 40.976562 32.90625 C 40.976562 32.90625 44.949219 27.085938 45.34375 25.242188 C 45.476562 24.585938 45.1875 24 44.503906 24 C 44.503906 24 42.210938 24 41.054688 24 C 40.265625 24 39.976562 24.558594 39.738281 25.058594 C 39.738281 25.058594 37.875 29.136719 35.605469 31.640625 C 34.878906 32.449219 34.691406 32.746094 34.289062 32.746094 C 33.964844 32.746094 34 32.53125 34 31.800781 L 34 25.40625 C 34 24.511719 33.527344 24 32.789062 24 L 27.265625 24 C 26.84375 24 26.644531 24.367188 26.644531 24.703125 C 26.644531 25.546875 28.003906 25.859375 28.003906 28.140625 L 28.003906 32.851562 C 28.003906 33.800781 27.882812 34.167969 27.4375 34.167969 C 26.253906 34.167969 23.402344 29.964844 21.824219 25.332031 C 21.503906 24.386719 21.128906 24 20.234375 24 L 16.789062 24 C 16.289062 24 15.917969 24.464844 15.917969 24.964844 C 15.917969 25.886719 16.996094 30.214844 21.234375 35.925781 C 24.078125 39.769531 27.945312 41.878906 31.316406 41.878906 C 33.367188 41.878906 34 41.566406 34 40.699219 L 34 37.75 C 34 37.011719 34.15625 36.695312 34.578125 36.695312 C 35.054688 36.695312 35.824219 36.894531 37.777344 38.820312 C 40.09375 41.03125 40.1875 42 41.449219 42 L 45.320312 42 C 45.714844 42 46.082031 41.769531 46.082031 41.113281 C 46.082031 40.242188 44.949219 38.667969 43.214844 36.824219 C 42.503906 35.878906 41.34375 34.839844 40.976562 34.367188 C 40.449219 33.8125 40.605469 33.484375 40.976562 32.90625 Z M 40.976562 32.90625 "/>
</g>
</svg>
